<svg width="100" height="100" viewBox="0 0 100 100" fill="none" xmlns="http://www.w3.org/2000/svg">
<path d="M77.0714 12.5V14H78.5714H89.2857C94.5669 14 98.5 17.7095 98.5 21.875V29.75H1.5V21.875C1.5 17.7095 5.43313 14 10.7143 14H21.4286H22.9286V12.5V3.125C22.9286 2.41656 23.6697 1.5 25 1.5H32.1429C33.4731 1.5 34.2143 2.41656 34.2143 3.125V12.5V14H35.7143H64.2857H65.7857V12.5V3.125C65.7857 2.41656 66.5269 1.5 67.8571 1.5H75C76.3303 1.5 77.0714 2.41656 77.0714 3.125V12.5ZM10.7143 98.5C5.43313 98.5 1.5 94.7905 1.5 90.625V39H98.5V90.625C98.5 94.7905 94.5669 98.5 89.2857 98.5H10.7143ZM74.1071 48.5C71.9999 48.5 69.9286 50.0444 69.9286 52.3438V60.1562C69.9286 62.4556 71.9999 64 74.1071 64H83.0357C85.1429 64 87.2143 62.4556 87.2143 60.1562V52.3438C87.2143 50.0444 85.1429 48.5 83.0357 48.5H74.1071ZM74.1071 73.5C71.9999 73.5 69.9286 75.0444 69.9286 77.3438V85.1562C69.9286 87.4556 71.9999 89 74.1071 89H83.0357C85.1429 89 87.2143 87.4556 87.2143 85.1562V77.3438C87.2143 75.0444 85.1429 73.5 83.0357 73.5H74.1071ZM45.5357 48.5C43.4285 48.5 41.3571 50.0444 41.3571 52.3438V60.1562C41.3571 62.4556 43.4285 64 45.5357 64H54.4643C56.5715 64 58.6429 62.4556 58.6429 60.1562V52.3438C58.6429 50.0444 56.5715 48.5 54.4643 48.5H45.5357ZM45.5357 73.5C43.4285 73.5 41.3571 75.0444 41.3571 77.3438V85.1562C41.3571 87.4556 43.4285 89 45.5357 89H54.4643C56.5715 89 58.6429 87.4556 58.6429 85.1562V77.3438C58.6429 75.0444 56.5715 73.5 54.4643 73.5H45.5357ZM16.9643 48.5C14.8571 48.5 12.7857 50.0444 12.7857 52.3438V60.1562C12.7857 62.4556 14.8571 64 16.9643 64H25.8929C28.0001 64 30.0714 62.4556 30.0714 60.1562V52.3438C30.0714 50.0444 28.0001 48.5 25.8929 48.5H16.9643ZM16.9643 73.5C14.8571 73.5 12.7857 75.0444 12.7857 77.3438V85.1562C12.7857 87.4556 14.8571 89 16.9643 89H25.8929C28.0001 89 30.0714 87.4556 30.0714 85.1562V77.3438C30.0714 75.0444 28.0001 73.5 25.8929 73.5H16.9643Z" stroke="white" stroke-width="3"/>
</svg>
