<svg width="100" height="100" viewBox="0 0 100 100" fill="none" xmlns="http://www.w3.org/2000/svg">
<mask id="path-1-inside-1_12_54" fill="white">
<path d="M14.4531 40.625H12.5C11.6712 40.625 10.8763 40.9542 10.2903 41.5403C9.70424 42.1263 9.375 42.9212 9.375 43.75V46.875C9.375 47.7038 9.70424 48.4987 10.2903 49.0847C10.8763 49.6708 11.6712 50 12.5 50H15.6133C15.5861 58.4283 14.5408 66.8224 12.5 75H37.5C35.4592 66.8224 34.4139 58.4283 34.3867 50H37.5C38.3288 50 39.1237 49.6708 39.7097 49.0847C40.2958 48.4987 40.625 47.7038 40.625 46.875V43.75C40.625 42.9212 40.2958 42.1263 39.7097 41.5403C39.1237 40.9542 38.3288 40.625 37.5 40.625H35.5469L42.166 22.9727C42.3435 22.4996 42.4036 21.9905 42.3412 21.489C42.2788 20.9876 42.0957 20.5088 41.8077 20.0936C41.5196 19.6785 41.1352 19.3393 40.6874 19.1053C40.2395 18.8713 39.7416 18.7494 39.2363 18.75H28.125V12.5H32.8125C33.2269 12.5 33.6243 12.3354 33.9174 12.0424C34.2104 11.7493 34.375 11.3519 34.375 10.9375V7.8125C34.375 7.3981 34.2104 7.00067 33.9174 6.70765C33.6243 6.41462 33.2269 6.25 32.8125 6.25H28.125V1.5625C28.125 1.1481 27.9604 0.750671 27.6674 0.457646C27.3743 0.16462 26.9769 0 26.5625 0L23.4375 0C23.0231 0 22.6257 0.16462 22.3326 0.457646C22.0396 0.750671 21.875 1.1481 21.875 1.5625V6.25H17.1875C16.7731 6.25 16.3757 6.41462 16.0826 6.70765C15.7896 7.00067 15.625 7.3981 15.625 7.8125V10.9375C15.625 11.3519 15.7896 11.7493 16.0826 12.0424C16.3757 12.3354 16.7731 12.5 17.1875 12.5H21.875V18.75H10.7598C10.2545 18.7494 9.75655 18.8713 9.30871 19.1053C8.86086 19.3393 8.47645 19.6785 8.1884 20.0936C7.90036 20.5088 7.71729 20.9876 7.65488 21.489C7.59248 21.9905 7.65259 22.4996 7.83008 22.9727L14.4531 40.625ZM48.2734 89.7617L43.75 87.5V84.375C43.75 83.5462 43.4208 82.7513 42.8347 82.1653C42.2487 81.5792 41.4538 81.25 40.625 81.25H9.375C8.5462 81.25 7.75134 81.5792 7.16529 82.1653C6.57924 82.7513 6.25 83.5462 6.25 84.375V87.5L1.72852 89.7617C1.20926 90.0211 0.772509 90.42 0.467209 90.9136C0.161909 91.4073 0.00012852 91.9762 0 92.5566L0 96.875C0 97.7038 0.32924 98.4987 0.915291 99.0847C1.50134 99.6708 2.2962 100 3.125 100H46.875C47.7038 100 48.4987 99.6708 49.0847 99.0847C49.6708 98.4987 50 97.7038 50 96.875V92.5566C50.0001 91.9764 49.8386 91.4076 49.5336 90.914C49.2287 90.4204 48.7923 90.0214 48.2734 89.7617ZM66.3926 58.9453L65.75 75H90.5L89.8574 58.9434L94.6621 54.8828C95.3563 54.2954 95.9139 53.5636 96.2962 52.7385C96.6784 51.9134 96.8759 51.0148 96.875 50.1055V38.6719C96.875 38.3611 96.7515 38.063 96.5318 37.8432C96.312 37.6235 96.0139 37.5 95.7031 37.5H90.5508C90.24 37.5 89.9419 37.6235 89.7221 37.8432C89.5024 38.063 89.3789 38.3611 89.3789 38.6719V43.75H84.5527V38.6719C84.5527 38.3611 84.4293 38.063 84.2095 37.8432C83.9897 37.6235 83.6917 37.5 83.3809 37.5H72.8711C72.5603 37.5 72.2622 37.6235 72.0424 37.8432C71.8227 38.063 71.6992 38.3611 71.6992 38.6719V43.75H66.873V38.6719C66.873 38.3611 66.7496 38.063 66.5298 37.8432C66.31 37.6235 66.012 37.5 65.7012 37.5H60.5469C60.2361 37.5 59.938 37.6235 59.7182 37.8432C59.4985 38.063 59.375 38.3611 59.375 38.6719V50.1172C59.3765 51.025 59.5758 51.9216 59.959 52.7446C60.3421 53.5676 60.9 54.2973 61.5937 54.8828L66.3926 58.9453ZM75 59.375C75 58.5462 75.3292 57.7513 75.9153 57.1653C76.5013 56.5792 77.2962 56.25 78.125 56.25C78.9538 56.25 79.7487 56.5792 80.3347 57.1653C80.9208 57.7513 81.25 58.5462 81.25 59.375V65.625H75V59.375ZM98.2734 89.7617L93.75 87.5V84.375C93.75 83.5462 93.4208 82.7513 92.8347 82.1653C92.2487 81.5792 91.4538 81.25 90.625 81.25H65.625C64.7962 81.25 64.0013 81.5792 63.4153 82.1653C62.8292 82.7513 62.5 83.5462 62.5 84.375V87.5L57.9785 89.7617C57.4593 90.0211 57.0225 90.42 56.7172 90.9136C56.4119 91.4073 56.2501 91.9762 56.25 92.5566V96.875C56.25 97.7038 56.5792 98.4987 57.1653 99.0847C57.7513 99.6708 58.5462 100 59.375 100H96.875C97.7038 100 98.4987 99.6708 99.0847 99.0847C99.6708 98.4987 100 97.7038 100 96.875V92.5566C100 91.9764 99.8386 91.4076 99.5336 90.914C99.2287 90.4204 98.7923 90.0214 98.2734 89.7617Z"/>
</mask>
<path d="M14.4531 40.625H12.5C11.6712 40.625 10.8763 40.9542 10.2903 41.5403C9.70424 42.1263 9.375 42.9212 9.375 43.75V46.875C9.375 47.7038 9.70424 48.4987 10.2903 49.0847C10.8763 49.6708 11.6712 50 12.5 50H15.6133C15.5861 58.4283 14.5408 66.8224 12.5 75H37.5C35.4592 66.8224 34.4139 58.4283 34.3867 50H37.5C38.3288 50 39.1237 49.6708 39.7097 49.0847C40.2958 48.4987 40.625 47.7038 40.625 46.875V43.75C40.625 42.9212 40.2958 42.1263 39.7097 41.5403C39.1237 40.9542 38.3288 40.625 37.5 40.625H35.5469L42.166 22.9727C42.3435 22.4996 42.4036 21.9905 42.3412 21.489C42.2788 20.9876 42.0957 20.5088 41.8077 20.0936C41.5196 19.6785 41.1352 19.3393 40.6874 19.1053C40.2395 18.8713 39.7416 18.7494 39.2363 18.75H28.125V12.5H32.8125C33.2269 12.5 33.6243 12.3354 33.9174 12.0424C34.2104 11.7493 34.375 11.3519 34.375 10.9375V7.8125C34.375 7.3981 34.2104 7.00067 33.9174 6.70765C33.6243 6.41462 33.2269 6.25 32.8125 6.25H28.125V1.5625C28.125 1.1481 27.9604 0.750671 27.6674 0.457646C27.3743 0.16462 26.9769 0 26.5625 0L23.4375 0C23.0231 0 22.6257 0.16462 22.3326 0.457646C22.0396 0.750671 21.875 1.1481 21.875 1.5625V6.25H17.1875C16.7731 6.25 16.3757 6.41462 16.0826 6.70765C15.7896 7.00067 15.625 7.3981 15.625 7.8125V10.9375C15.625 11.3519 15.7896 11.7493 16.0826 12.0424C16.3757 12.3354 16.7731 12.5 17.1875 12.5H21.875V18.75H10.7598C10.2545 18.7494 9.75655 18.8713 9.30871 19.1053C8.86086 19.3393 8.47645 19.6785 8.1884 20.0936C7.90036 20.5088 7.71729 20.9876 7.65488 21.489C7.59248 21.9905 7.65259 22.4996 7.83008 22.9727L14.4531 40.625ZM48.2734 89.7617L43.75 87.5V84.375C43.75 83.5462 43.4208 82.7513 42.8347 82.1653C42.2487 81.5792 41.4538 81.25 40.625 81.25H9.375C8.5462 81.25 7.75134 81.5792 7.16529 82.1653C6.57924 82.7513 6.25 83.5462 6.25 84.375V87.5L1.72852 89.7617C1.20926 90.0211 0.772509 90.42 0.467209 90.9136C0.161909 91.4073 0.00012852 91.9762 0 92.5566L0 96.875C0 97.7038 0.32924 98.4987 0.915291 99.0847C1.50134 99.6708 2.2962 100 3.125 100H46.875C47.7038 100 48.4987 99.6708 49.0847 99.0847C49.6708 98.4987 50 97.7038 50 96.875V92.5566C50.0001 91.9764 49.8386 91.4076 49.5336 90.914C49.2287 90.4204 48.7923 90.0214 48.2734 89.7617ZM66.3926 58.9453L65.75 75H90.5L89.8574 58.9434L94.6621 54.8828C95.3563 54.2954 95.9139 53.5636 96.2962 52.7385C96.6784 51.9134 96.8759 51.0148 96.875 50.1055V38.6719C96.875 38.3611 96.7515 38.063 96.5318 37.8432C96.312 37.6235 96.0139 37.5 95.7031 37.5H90.5508C90.24 37.5 89.9419 37.6235 89.7221 37.8432C89.5024 38.063 89.3789 38.3611 89.3789 38.6719V43.75H84.5527V38.6719C84.5527 38.3611 84.4293 38.063 84.2095 37.8432C83.9897 37.6235 83.6917 37.5 83.3809 37.5H72.8711C72.5603 37.5 72.2622 37.6235 72.0424 37.8432C71.8227 38.063 71.6992 38.3611 71.6992 38.6719V43.75H66.873V38.6719C66.873 38.3611 66.7496 38.063 66.5298 37.8432C66.31 37.6235 66.012 37.5 65.7012 37.5H60.5469C60.2361 37.5 59.938 37.6235 59.7182 37.8432C59.4985 38.063 59.375 38.3611 59.375 38.6719V50.1172C59.3765 51.025 59.5758 51.9216 59.959 52.7446C60.3421 53.5676 60.9 54.2973 61.5937 54.8828L66.3926 58.9453ZM75 59.375C75 58.5462 75.3292 57.7513 75.9153 57.1653C76.5013 56.5792 77.2962 56.25 78.125 56.25C78.9538 56.25 79.7487 56.5792 80.3347 57.1653C80.9208 57.7513 81.25 58.5462 81.25 59.375V65.625H75V59.375ZM98.2734 89.7617L93.75 87.5V84.375C93.75 83.5462 93.4208 82.7513 92.8347 82.1653C92.2487 81.5792 91.4538 81.25 90.625 81.25H65.625C64.7962 81.25 64.0013 81.5792 63.4153 82.1653C62.8292 82.7513 62.5 83.5462 62.5 84.375V87.5L57.9785 89.7617C57.4593 90.0211 57.0225 90.42 56.7172 90.9136C56.4119 91.4073 56.2501 91.9762 56.25 92.5566V96.875C56.25 97.7038 56.5792 98.4987 57.1653 99.0847C57.7513 99.6708 58.5462 100 59.375 100H96.875C97.7038 100 98.4987 99.6708 99.0847 99.0847C99.6708 98.4987 100 97.7038 100 96.875V92.5566C100 91.9764 99.8386 91.4076 99.5336 90.914C99.2287 90.4204 98.7923 90.0214 98.2734 89.7617Z" stroke="white" stroke-width="6" mask="url(#path-1-inside-1_12_54)"/>
</svg>
