<svg width="100" height="100" viewBox="0 0 100 100" fill="none" xmlns="http://www.w3.org/2000/svg">
<path d="M65.1667 12.5V14H66.6667H87.5C90.6571 14 93.459 14.9624 95.4379 16.4466C97.4165 17.9305 98.5 19.8654 98.5 21.875V90.625C98.5 92.6346 97.4165 94.5695 95.4379 96.0534C93.459 97.5376 90.6571 98.5 87.5 98.5H12.5C9.3429 98.5 6.54098 97.5376 4.56211 96.0534C2.58355 94.5695 1.5 92.6346 1.5 90.625V21.875C1.5 19.8654 2.58355 17.9305 4.56211 16.4466C6.54098 14.9624 9.3429 14 12.5 14H33.3333H34.8333V12.5C34.8333 9.63193 36.3848 6.91551 39.1194 4.86455C41.854 2.81364 45.6977 1.5 50 1.5C54.3023 1.5 58.146 2.81364 60.8806 4.86455C63.6152 6.91551 65.1667 9.63193 65.1667 12.5ZM17.25 78.125C17.25 79.9987 18.2594 81.5803 19.6762 82.6429C21.0911 83.7041 22.9774 84.3125 25 84.3125C27.0226 84.3125 28.9089 83.7041 30.3238 82.6429C31.7406 81.5803 32.75 79.9987 32.75 78.125C32.75 76.2513 31.7406 74.6697 30.3238 73.6071C28.9089 72.5459 27.0226 71.9375 25 71.9375C22.9774 71.9375 21.0911 72.5459 19.6762 73.6071C18.2594 74.6697 17.25 76.2513 17.25 78.125ZM17.25 59.375C17.25 61.2487 18.2594 62.8303 19.6762 63.8929C21.0911 64.9541 22.9774 65.5625 25 65.5625C27.0226 65.5625 28.9089 64.9541 30.3238 63.8929C31.7406 62.8303 32.75 61.2487 32.75 59.375C32.75 57.5013 31.7406 55.9197 30.3238 54.8571C28.9089 53.7959 27.0226 53.1875 25 53.1875C22.9774 53.1875 21.0911 53.7959 19.6762 54.8571C18.2594 55.9197 17.25 57.5013 17.25 59.375ZM17.25 40.625C17.25 42.4987 18.2594 44.0803 19.6762 45.1429C21.0911 46.2041 22.9774 46.8125 25 46.8125C27.0226 46.8125 28.9089 46.2041 30.3238 45.1429C31.7406 44.0803 32.75 42.4987 32.75 40.625C32.75 38.7513 31.7406 37.1697 30.3238 36.1071C28.9089 35.0459 27.0226 34.4375 25 34.4375C22.9774 34.4375 21.0911 35.0459 19.6762 36.1071C18.2594 37.1697 17.25 38.7513 17.25 40.625ZM57.75 12.5C57.75 10.6263 56.7406 9.04469 55.3238 7.98213C53.9089 6.92094 52.0226 6.3125 50 6.3125C47.9774 6.3125 46.0911 6.92094 44.6762 7.98213C43.2594 9.04469 42.25 10.6263 42.25 12.5C42.25 14.3737 43.2594 15.9553 44.6762 17.0179C46.0911 18.0791 47.9774 18.6875 50 18.6875C52.0226 18.6875 53.9089 18.0791 55.3238 17.0179C56.7406 15.9553 57.75 14.3737 57.75 12.5ZM81.25 82.75C82.1189 82.75 82.9621 82.4854 83.6214 81.991C84.2794 81.4975 84.8333 80.699 84.8333 79.6875V76.5625C84.8333 75.551 84.2794 74.7525 83.6214 74.259C82.9621 73.7646 82.1189 73.5 81.25 73.5H43.75C42.8811 73.5 42.0379 73.7646 41.3786 74.259C40.7206 74.7525 40.1667 75.551 40.1667 76.5625V79.6875C40.1667 80.699 40.7206 81.4975 41.3786 81.991C42.0379 82.4854 42.8811 82.75 43.75 82.75H81.25ZM81.25 64C82.1189 64 82.9621 63.7354 83.6214 63.241C84.2794 62.7475 84.8333 61.949 84.8333 60.9375V57.8125C84.8333 56.801 84.2794 56.0025 83.6214 55.509C82.9621 55.0146 82.1189 54.75 81.25 54.75H43.75C42.8811 54.75 42.0379 55.0146 41.3786 55.509C40.7206 56.0025 40.1667 56.801 40.1667 57.8125V60.9375C40.1667 61.949 40.7206 62.7475 41.3786 63.241C42.0379 63.7354 42.8811 64 43.75 64H81.25ZM81.25 45.25C82.1189 45.25 82.9621 44.9854 83.6214 44.491C84.2794 43.9975 84.8333 43.199 84.8333 42.1875V39.0625C84.8333 38.051 84.2794 37.2525 83.6214 36.759C82.9621 36.2646 82.1189 36 81.25 36H43.75C42.8811 36 42.0379 36.2646 41.3786 36.759C40.7206 37.2525 40.1667 38.051 40.1667 39.0625V42.1875C40.1667 43.199 40.7206 43.9975 41.3786 44.491C42.0379 44.9854 42.8811 45.25 43.75 45.25H81.25Z" stroke="white" stroke-width="3"/>
</svg>
