<svg width="50" height="50" viewBox="0 0 50 50" fill="none" xmlns="http://www.w3.org/2000/svg">
<path d="M25 0C11.1928 0 0 11.1928 0 25C0 38.8072 11.1928 50 25 50C38.8072 50 50 38.8072 50 25C50 11.1928 38.8072 0 25 0ZM36.8079 34.9549C36.6474 35.1431 32.7982 39.5649 25.7342 39.5649C17.1967 39.5649 11.1693 33.1879 11.1693 24.8908C11.1693 16.695 17.4197 10.4351 25.6614 10.4351C32.4111 10.4351 35.9401 14.1967 36.087 14.3569C36.268 14.5541 36.3784 14.8058 36.401 15.0726C36.4236 15.3394 36.357 15.6061 36.2118 15.8309L33.9557 19.3244C33.5476 19.9562 32.668 20.0654 32.1176 19.5557C32.0942 19.5342 29.4433 17.1485 25.8797 17.1485C21.2309 17.1485 18.4285 20.5331 18.4285 24.818C18.4285 28.8102 21.0005 32.8515 25.9161 32.8515C29.817 32.8515 32.4968 29.9949 32.5234 29.9659C33.0407 29.4049 33.9406 29.4586 34.3891 30.0721L36.8636 33.4564C37.0242 33.676 37.1061 33.9434 37.0959 34.2153C37.0858 34.4872 36.9843 34.7478 36.8079 34.9549Z" fill="white"/>
</svg>
