<svg width="50" height="50" viewBox="0 0 50 50" fill="none" xmlns="http://www.w3.org/2000/svg">
<path d="M24.9998 11.2266L6.03022 30.0498C5.88959 30.1924 5.7099 30.2588 5.55539 30.377V48.4375C5.55539 49.3008 6.17692 50 6.94428 50H19.8982L16.6665 42.8897L25.7038 36.6397L20.4816 24.9971L33.3331 38.3545L24.2958 44.6045L27.7611 50H43.0553C43.8227 50 44.4442 49.3008 44.4442 48.4375V30.3809C44.2966 30.2676 44.1213 30.2031 43.9876 30.0684L24.9998 11.2266ZM49.5388 23.0742L44.4442 18.0127V4.6875C44.4442 3.82422 43.8227 3.125 43.0553 3.125H37.4998C36.7324 3.125 36.1109 3.82422 36.1109 4.6875V9.73535L27.3218 1.00684C26.6595 0.336916 25.8296 0.000978698 24.9998 2.13534e-06C24.1699 -0.000974427 23.3418 0.33301 22.6821 1.00293L0.460784 23.0742C-0.109527 23.6514 -0.15727 24.6387 0.35575 25.2813L2.21338 27.6074C2.72554 28.249 3.60401 28.3027 4.17518 27.7256L24.0814 7.97168C24.6066 7.45117 25.3939 7.45117 25.9191 7.97168L45.8252 27.7246C46.3956 28.3008 47.274 28.2481 47.7871 27.6064L49.6447 25.2803C50.1568 24.6387 50.11 23.6504 49.5388 23.0742Z" fill="white"/>
</svg>
