<svg width="50" height="40" viewBox="0 0 50 40" fill="none" xmlns="http://www.w3.org/2000/svg">
<path d="M49.0527 13.2083C49.4336 12.8854 50 13.1875 50 13.6979V35C50 37.7604 47.9004 40 45.3125 40H4.6875C2.09961 40 0 37.7604 0 35V13.7083C0 13.1875 0.556641 12.8958 0.947266 13.2187C3.13477 15.0312 6.03516 17.3333 15.9961 25.0521C18.0566 26.6562 21.5332 30.0312 25 30.0104C28.4863 30.0417 32.0312 26.5938 34.0137 25.0521C43.9746 17.3333 46.8652 15.0208 49.0527 13.2083ZM25 26.6667C27.2656 26.7083 30.5273 23.625 32.168 22.3542C45.127 12.3229 46.1133 11.4479 49.1016 8.94792C49.668 8.47917 50 7.75 50 6.97917V5C50 2.23958 47.9004 0 45.3125 0H4.6875C2.09961 0 0 2.23958 0 5V6.97917C0 7.75 0.332031 8.46875 0.898438 8.94792C3.88672 11.4375 4.87305 12.3229 17.832 22.3542C19.4727 23.625 22.7344 26.7083 25 26.6667Z" fill="white"/>
</svg>
