<svg width="50" height="50" viewBox="0 0 50 50" fill="none" xmlns="http://www.w3.org/2000/svg">
<path d="M48.5741 35.3318L37.6364 30.6442C37.1691 30.4451 36.6499 30.4031 36.1567 30.5246C35.6635 30.6462 35.2232 30.9246 34.902 31.318L30.0581 37.2361C22.4562 33.6519 16.3384 27.534 12.7541 19.9321L18.6722 15.0882C19.0664 14.7676 19.3454 14.3273 19.467 13.8339C19.5886 13.3405 19.5461 12.8209 19.346 12.3538L14.6585 1.41613C14.4388 0.912616 14.0504 0.501512 13.5601 0.253708C13.0699 0.00590357 12.5085 -0.063068 11.9729 0.0586859L1.81644 2.40248C1.29999 2.52174 0.839219 2.81252 0.50932 3.22738C0.179422 3.64223 -0.000118968 4.15666 5.91437e-08 4.6867C5.91437e-08 29.736 20.3031 50 45.3133 50C45.8435 50.0003 46.3581 49.8209 46.7732 49.491C47.1883 49.1611 47.4792 48.7002 47.5985 48.1836L49.9423 38.0271C50.0632 37.4889 49.9928 36.9253 49.7431 36.4333C49.4934 35.9414 49.08 35.5518 48.5741 35.3318Z" fill="white"/>
</svg>
