<svg width="50" height="50" viewBox="0 0 50 50" fill="none" xmlns="http://www.w3.org/2000/svg">
<path d="M1.5625 10.7143H42.1875C43.0508 10.7143 43.75 9.91518 43.75 8.92857V1.78571C43.75 0.799107 43.0508 0 42.1875 0H1.5625C0.699219 0 0 0.799107 0 1.78571V8.92857C0 9.91518 0.699219 10.7143 1.5625 10.7143ZM48.4375 19.6429H7.8125C6.94922 19.6429 6.25 20.442 6.25 21.4286V28.5714C6.25 29.558 6.94922 30.3571 7.8125 30.3571H48.4375C49.3008 30.3571 50 29.558 50 28.5714V21.4286C50 20.442 49.3008 19.6429 48.4375 19.6429ZM42.1875 39.2857H1.5625C0.699219 39.2857 0 40.0848 0 41.0714V48.2143C0 49.2009 0.699219 50 1.5625 50H42.1875C43.0508 50 43.75 49.2009 43.75 48.2143V41.0714C43.75 40.0848 43.0508 39.2857 42.1875 39.2857Z" fill="black"/>
</svg>
